<svg xmlns="http://www.w3.org/2000/svg" version="1.1" xmlns:xlink="http://www.w3.org/1999/xlink" xmlns:svgjs="http://svgjs.dev/svgjs" width="2000" height="2242" viewBox="0 0 2000 2242"><g transform="matrix(1,0,0,1,-3.1151183800621993,0)"><svg viewBox="0 0 321 360" data-background-color="#ffffff" preserveAspectRatio="xMidYMid meet" height="2242" width="2000" xmlns="http://www.w3.org/2000/svg" xmlns:xlink="http://www.w3.org/1999/xlink"><g id="tight-bounds" transform="matrix(1,0,0,1,0.5000234999999975,0)"><svg viewBox="0 0 320 360" height="360" width="320"><g><svg></svg></g><g><svg viewBox="0 0 320 360" height="360" width="320"><g><path transform="translate(-74.99272,-51.79039) scale(4.65793,4.65793)" d="M20.6 59.9l0.8 1-0.4-1.3c-0.1-0.6-0.8 0.1-0.4 0.3M21.5 59.3c0.3 0.5 0.6 1 0.6 1.5 0 0.7 0.6 1 1.1 1.2-0.7-0.8-1.1-3-1.7-2.7M59.9 16.9c1.7 0 3.3-0.2 5.1 0.2 4.4 1.1 8.1 3.3 10.6 6.4l7 11.2c0.3 2.8 0.9 5.9 0.8 9.3 0.7 0 0.6-1 1.4-1.2-0.8 2-1.2 4.5-1.4 7.4-0.5-1.6 0-4 0.1-5.3-0.7 1.1-1.1 0.3-1.1-0.2 0.1-0.8-0.3-0.7-0.6-1-1.1-1-1.8-2.1-2.6-3.8 0.5-1.3 0.6-3.2-1-4.2-0.5-0.3-1.1-0.8-1.4-1.6-0.4-1.1-1.1-2.4-0.9-4.1 0.1-0.5-1.5 1.1-2.4 0.4-3.9-2.7-7.8-5.8-12.5-8.4-2.5 0-4.3-0.9-5.2-2-0.8-1-0.2-2.3 1-2.4 0.7 0 1.5-0.2 2.1 0.2 0.1-0.4 0.5-0.9 1-0.9M50 14.6l0.2 0.1c1 0.2 1.5 1.6 2.6 1.1 0 0.7 0.1 1.4-0.1 1.9-0.3 0.8-1.2 0.8-1.9 0.8-6.7-0.4-10.6 2.4-14.7 4.8-1.1 0.7-2.3 1.2-3.2 2.1-4.3 4-9 7.7-10.1 15.1l-0.9 8.2c-0.1 0.9-1.1 1.8-0.9 2.9l0.7 4.9c-0.7-0.7-1.1 0.2-0.9 0.6 0.1 0.3 0.5 1.3 1.1 0.4 0.8 1.5 1.6 4.4 2.7 5.7 3.4 4 7.8 7.6 11.4 11.2 0.9-0.2 1.6-0.2 1.8-0.8 0.3 0.6-0.3 1.2-0.8 1.3 1.6 1 3.4 1.9 5.8 2.1 3.1 0.2 6 0.7 8.7 1.4 1.4-0.4 2.8-0.6 4.3-0.7 0.5 0 0.8-0.8 1.4-1l0.1-1c0.6 0.9 0.5-0.3 0.1-0.9 0.7 0.6 0.9 1.1 1.2 1.5 0-0.3 0.8-1.4 0.8-0.1l0.2-1.3c0.3-0.2 0.4 1.1 0.7 0.2 0.3-0.9 0.9-0.2 1.5-0.5-0.2 0.4-0.1 1.2 0.6 0.7l0.8-0.7c0.5 1.2 1.3 0.7 1.7 0.5 4.4-2.8 8.8-6.1 13-9.4l-0.1 1.3 0.5-1.6c0.5 0.5 0.9 0.1 1.1-0.2 0.6-1 1.4-2 2.7-2.9-1.6 4.3-3.5 7.7-5.9 10.5l-1 1.2c0 0.7-0.2 1.6-1 1.7-0.4 0.1-1.2-0.2-1.8 0.4-0.3 0.4 0.7 1.2-0.1 0.6-0.7-0.5-1.4 0-2.2 0.2-0.6 0.2 0.4 0.8 0.6 1.2 0.2 0.4 0.4 0.8 0.3 1.3l-1.1-1.2c-1.3 0.7-2.1 2-3.2 3-0.5 0.4-0.3 1.1-0.3 1.7-0.7 0-1.5-0.2-1.9 0.2-0.3 0.4-0.2 1-0.2 1.6-1-0.1-1.1-1.6-2-1.3-0.9 0.2-1.9 0.3-2.7 0.8 0.6 1.2-1 0.5-0.8 0.7-1.5-0.9-2.8-1.6-4.4-1-3.4-1.1-7.6-0.6-10.7-0.2 0-0.5 0.1-1-0.1-1.1-0.2 0.5-0.8 0.3-0.7 0.3-1.9-1.3-3.8-2.1-5.8-3.2-1.8 0.2-3.5-0.7-4-1.2-1.4-1.3-3-0.6-4.3-0.9-2.8-0.7-3.8-3.6-4.1-5.6-0.2-1-1-1.4-1.3-1.3-1.3-4.2-3.3-8-4.9-11.9-0.4-1-0.3-2-0.3-3.1 0.5 0.2 1 0.1 0.9-0.6-0.5-3.3-1.7-5.8-3-8.2 0.7-3.4 0.8-7.4 2.4-10.4 1.4-2.7 4-4.1 5.8-6.4 0.6-0.8 0.6-1.9 1.2-2.6 2-2 4-4.1 6.2-5.9 1-0.8 2.2 0 3.7-0.3 0.5-1.8 2.5-3.4 4.4-2.9 0.8 0.2 2.4-1.9 2.9-2.1 0.8-0.3 0.4 0.8 0.4 1.5 1.9-1.5 4.5-2.3 6.9-3.2" fill="#d1284c" fill-rule="nonzero" stroke="none" stroke-width="1" stroke-linecap="butt" stroke-linejoin="miter" stroke-miterlimit="10" stroke-dasharray="" stroke-dashoffset="0" font-family="none" font-weight="none" font-size="none" text-anchor="none" style="mix-blend-mode: normal" data-fill-palette-color="tertiary"></path></g><g transform="matrix(1,0,0,1,64,148.86454856495575)"><svg viewBox="0 0 192 62.27090287008849" height="62.27090287008849" width="192"><g><svg viewBox="0 0 192 62.27090287008849" height="62.27090287008849" width="192"><g><svg viewBox="0 0 192 62.27090287008849" height="62.27090287008849" width="192"><g transform="matrix(1,0,0,1,0,46.34453118867256)"><svg viewBox="0 0 192 15.926371681415928" height="15.926371681415928" width="192"><g id="textblocktransform"><svg viewBox="0 0 192 15.926371681415928" height="15.926371681415928" width="192" id="textblock"><g><svg viewBox="0 0 192 15.926371681415928" height="15.926371681415928" width="192"><g transform="matrix(1,0,0,1,0,0)"><svg width="192" viewBox="3 -34.4 423.72 35.15" height="15.926371681415928" data-palette-color="#f88020"><path d="M20.3 0.75L20.3 0.75Q16.65 0.75 13.5-0.48 10.35-1.7 7.98-3.98 5.6-6.25 4.3-9.4 3-12.55 3-16.35L3-16.35Q3-20.45 4.5-23.73 6-27 8.6-29.3 11.2-31.6 14.6-32.8 18-34 21.8-34L21.8-34Q23.65-34 25.58-33.75 27.5-33.5 29.18-33.08 30.85-32.65 31.95-32.15L31.95-32.15 31.95-24.25 30.8-24.25Q30.6-27.2 29.15-28.88 27.7-30.55 25.58-31.28 23.45-32 21.15-32L21.15-32Q17.6-32 14.55-30.4 11.5-28.8 9.68-25.53 7.85-22.25 7.85-17.15L7.85-17.15Q7.85-12.3 9.55-8.72 11.25-5.15 14.08-3.2 16.9-1.25 20.35-1.25L20.35-1.25Q23.5-1.25 25.93-2.73 28.35-4.2 29.9-6.45 31.45-8.7 31.95-11L31.95-11 33.1-11 32.8-5.15Q30.9-2.8 27.9-1.03 24.9 0.75 20.3 0.75ZM54.95-34L54.95-34Q58.35-34 61.35-32.8 64.35-31.6 66.7-29.33 69.05-27.05 70.37-23.85 71.7-20.65 71.7-16.7L71.7-16.7Q71.7-12.75 70.37-9.55 69.05-6.35 66.72-4.05 64.4-1.75 61.35-0.5 58.3 0.75 54.9 0.75L54.9 0.75Q51.55 0.75 48.52-0.45 45.5-1.65 43.17-3.93 40.85-6.2 39.52-9.4 38.2-12.6 38.2-16.55L38.2-16.55Q38.2-20.5 39.52-23.7 40.85-26.9 43.17-29.2 45.5-31.5 48.52-32.75 51.55-34 54.95-34ZM55.65-1.25L55.65-1.25Q58.65-1.25 61.17-2.9 63.7-4.55 65.25-7.78 66.8-11 66.8-15.75L66.8-15.75Q66.8-20.95 65-24.58 63.2-28.2 60.35-30.1 57.5-32 54.25-32L54.25-32Q51.25-32 48.7-30.35 46.15-28.7 44.6-25.48 43.05-22.25 43.05-17.5L43.05-17.5Q43.05-12.3 44.85-8.68 46.65-5.05 49.55-3.15 52.45-1.25 55.65-1.25ZM108.09 0.4L106.3 0.4Q105.55-0.75 104.65-1.93 103.75-3.1 102.2-4.8L102.2-4.8 83.95-25.45 83.85-25.45 83.85-5Q83.85-3.15 84.77-2.2 85.7-1.25 88.65-1.15L88.65-1.15 88.65 0 78.1 0 78.1-1.15Q80.15-1.25 80.87-2.2 81.6-3.15 81.6-5L81.6-5 81.6-28.25Q81.6-30.2 80.47-31.1 79.35-32 76.85-32.1L76.85-32.1 76.85-33.25 83.65-33.25Q84.4-32 85.27-30.8 86.15-29.6 87.2-28.45L87.2-28.45 105.65-7.8 105.75-7.8 105.75-28.25Q105.75-30.1 104.82-31.05 103.9-32 100.95-32.1L100.95-32.1 100.95-33.25 111.5-33.25 111.5-32.1Q109.5-32 108.75-31.05 108-30.1 108-28.25L108-28.25 108-5Q108-3.6 108.02-2.33 108.05-1.05 108.09 0.4L108.09 0.4ZM146.99 0.4L145.19 0.4Q144.44-0.75 143.54-1.93 142.64-3.1 141.09-4.8L141.09-4.8 122.84-25.45 122.74-25.45 122.74-5Q122.74-3.15 123.67-2.2 124.59-1.25 127.54-1.15L127.54-1.15 127.54 0 116.99 0 116.99-1.15Q119.04-1.25 119.77-2.2 120.49-3.15 120.49-5L120.49-5 120.49-28.25Q120.49-30.2 119.37-31.1 118.24-32 115.74-32.1L115.74-32.1 115.74-33.25 122.54-33.25Q123.29-32 124.17-30.8 125.04-29.6 126.09-28.45L126.09-28.45 144.54-7.8 144.64-7.8 144.64-28.25Q144.64-30.1 143.72-31.05 142.79-32 139.84-32.1L139.84-32.1 139.84-33.25 150.39-33.25 150.39-32.1Q148.39-32 147.64-31.05 146.89-30.1 146.89-28.25L146.89-28.25 146.89-5Q146.89-3.6 146.92-2.33 146.94-1.05 146.99 0.4L146.99 0.4ZM181.74 0L155.79 0 155.79-1.15Q157.14-1.2 157.89-1.45 158.64-1.7 158.97-2.5 159.29-3.3 159.29-5L159.29-5 159.29-28.25Q159.29-30 158.92-30.78 158.54-31.55 157.54-31.8 156.54-32.05 154.54-32.1L154.54-32.1 154.54-33.25 178.34-33.25 178.34-26.25 177.19-26.25Q177.14-27.85 176.69-29.03 176.24-30.2 175.04-30.83 173.84-31.45 171.49-31.45L171.49-31.45 165.74-31.45Q164.69-31.45 164.12-30.95 163.54-30.45 163.54-28.25L163.54-28.25 163.54-18.85Q163.94-19.15 164.52-19.25 165.09-19.35 165.89-19.35L165.89-19.35 172.94-19.35Q175.89-19.35 176.04-22.65L176.04-22.65 177.19-22.65 177.19-14.15 176.04-14.15Q175.99-16.2 175.34-16.88 174.69-17.55 172.94-17.55L172.94-17.55 165.99-17.55Q164.64-17.55 164.09-17.1 163.54-16.65 163.54-15.35L163.54-15.35 163.54-5Q163.54-2.85 164.31-2.33 165.09-1.8 167.34-1.8L167.34-1.8 174.29-1.8Q176.74-1.8 178.14-2.63 179.54-3.45 180.19-4.83 180.84-6.2 180.99-7.8L180.99-7.8 182.14-7.8 181.74 0ZM204.19 0.75L204.19 0.75Q200.54 0.75 197.39-0.48 194.24-1.7 191.86-3.98 189.49-6.25 188.19-9.4 186.89-12.55 186.89-16.35L186.89-16.35Q186.89-20.45 188.39-23.73 189.89-27 192.49-29.3 195.09-31.6 198.49-32.8 201.89-34 205.69-34L205.69-34Q207.54-34 209.46-33.75 211.39-33.5 213.06-33.08 214.74-32.65 215.84-32.15L215.84-32.15 215.84-24.25 214.69-24.25Q214.49-27.2 213.04-28.88 211.59-30.55 209.46-31.28 207.34-32 205.04-32L205.04-32Q201.49-32 198.44-30.4 195.39-28.8 193.56-25.53 191.74-22.25 191.74-17.15L191.74-17.15Q191.74-12.3 193.44-8.72 195.14-5.15 197.96-3.2 200.79-1.25 204.24-1.25L204.24-1.25Q207.39-1.25 209.81-2.73 212.24-4.2 213.79-6.45 215.34-8.7 215.84-11L215.84-11 216.99-11 216.69-5.15Q214.79-2.8 211.79-1.03 208.79 0.75 204.19 0.75ZM221.14-25.45L221.14-33.25 248.09-33.25 248.09-25.45 246.94-25.45Q246.84-27.2 246.39-28.55 245.94-29.9 244.69-30.68 243.44-31.45 240.89-31.45L240.89-31.45 236.74-31.45 236.74-5Q236.74-3.3 237.11-2.5 237.49-1.7 238.51-1.45 239.54-1.2 241.49-1.15L241.49-1.15 241.49 0 228.99 0 228.99-1.15Q230.34-1.2 231.11-1.45 231.89-1.7 232.19-2.5 232.49-3.3 232.49-5L232.49-5 232.49-31.45 228.29-31.45Q225.79-31.45 224.54-30.68 223.29-29.9 222.84-28.55 222.39-27.2 222.29-25.45L222.29-25.45 221.14-25.45ZM291.73 0L268.23 0 268.23-1.15Q269.58-1.2 270.33-1.45 271.08-1.7 271.41-2.5 271.73-3.3 271.73-5L271.73-5 271.73-28.25Q271.73-30 271.36-30.78 270.98-31.55 269.98-31.8 268.98-32.05 266.98-32.1L266.98-32.1 266.98-33.25 279.48-33.25 279.48-32.1Q278.13-32.05 277.38-31.8 276.63-31.55 276.31-30.78 275.98-30 275.98-28.25L275.98-28.25 275.98-5Q275.98-2.85 276.76-2.33 277.53-1.8 279.78-1.8L279.78-1.8 284.33-1.8Q286.83-1.8 288.21-2.63 289.58-3.45 290.21-4.83 290.83-6.2 290.98-7.8L290.98-7.8 292.13-7.8 291.73 0ZM312.83-34L312.83-34Q316.23-34 319.23-32.8 322.23-31.6 324.58-29.33 326.93-27.05 328.25-23.85 329.58-20.65 329.58-16.7L329.58-16.7Q329.58-12.75 328.25-9.55 326.93-6.35 324.6-4.05 322.28-1.75 319.23-0.5 316.18 0.75 312.78 0.75L312.78 0.75Q309.43 0.75 306.4-0.45 303.38-1.65 301.05-3.93 298.73-6.2 297.4-9.4 296.08-12.6 296.08-16.55L296.08-16.55Q296.08-20.5 297.4-23.7 298.73-26.9 301.05-29.2 303.38-31.5 306.4-32.75 309.43-34 312.83-34ZM313.53-1.25L313.53-1.25Q316.53-1.25 319.05-2.9 321.58-4.55 323.13-7.78 324.68-11 324.68-15.75L324.68-15.75Q324.68-20.95 322.88-24.58 321.08-28.2 318.23-30.1 315.38-32 312.13-32L312.13-32Q309.13-32 306.58-30.35 304.03-28.7 302.48-25.48 300.93-22.25 300.93-17.5L300.93-17.5Q300.93-12.3 302.73-8.68 304.53-5.05 307.43-3.15 310.33-1.25 313.53-1.25ZM352.88 0.75L352.88 0.75Q349.23 0.75 346.08-0.48 342.93-1.7 340.55-3.98 338.18-6.25 336.88-9.4 335.58-12.55 335.58-16.35L335.58-16.35Q335.58-20.45 337.08-23.73 338.58-27 341.18-29.3 343.78-31.6 347.18-32.8 350.58-34 354.38-34L354.38-34Q356.23-34 358.15-33.75 360.08-33.5 361.75-33.08 363.43-32.65 364.53-32.15L364.53-32.15 364.53-24.25 363.38-24.25Q363.18-27.2 361.73-28.88 360.28-30.55 358.15-31.28 356.03-32 353.73-32L353.73-32Q350.18-32 347.13-30.4 344.08-28.8 342.25-25.53 340.43-22.25 340.43-17.15L340.43-17.15Q340.43-12.3 342.13-8.72 343.83-5.15 346.65-3.2 349.48-1.25 352.93-1.25L352.93-1.25Q356.08-1.25 358.5-2.73 360.93-4.2 362.48-6.45 364.03-8.7 364.53-11L364.53-11 365.68-11 365.38-5.15Q363.48-2.8 360.48-1.03 357.48 0.75 352.88 0.75ZM386.77-29.3L394.92-5Q395.52-3.25 396.07-2.48 396.62-1.7 397.4-1.48 398.17-1.25 399.47-1.15L399.47-1.15 399.47 0 387.52 0 387.52-1.15Q389.22-1.25 390.05-1.5 390.87-1.75 390.97-2.55 391.07-3.35 390.47-5L390.47-5 387.62-13.6Q387.37-13.35 386.87-13.28 386.37-13.2 385.82-13.2L385.82-13.2 379.27-13.2Q378.17-13.2 377.62-12.95 377.07-12.7 376.67-11.6L376.67-11.6 374.32-5Q373.67-3.1 374.35-2.18 375.02-1.25 378.22-1.15L378.22-1.15 378.22 0 367.87 0 367.87-1.15Q369.47-1.25 370.4-2.18 371.32-3.1 372.02-5L372.02-5 380.87-29.3Q381.37-30.6 381.82-31.85 382.27-33.1 382.62-34.4L382.62-34.4 385.07-34.4Q385.42-33.1 385.85-31.85 386.27-30.6 386.77-29.3L386.77-29.3ZM379.22-15L385.92-15Q386.57-15 386.82-15.18 387.07-15.35 386.82-15.95L386.82-15.95 382.72-28.1 382.62-28.1 377.82-14.85Q378.07-14.95 378.42-14.98 378.77-15 379.22-15L379.22-15ZM426.32 0L402.82 0 402.82-1.15Q404.17-1.2 404.92-1.45 405.67-1.7 406-2.5 406.32-3.3 406.32-5L406.32-5 406.32-28.25Q406.32-30 405.95-30.78 405.57-31.55 404.57-31.8 403.57-32.05 401.57-32.1L401.57-32.1 401.57-33.25 414.07-33.25 414.07-32.1Q412.72-32.05 411.97-31.8 411.22-31.55 410.9-30.78 410.57-30 410.57-28.25L410.57-28.25 410.57-5Q410.57-2.85 411.35-2.33 412.12-1.8 414.37-1.8L414.37-1.8 418.92-1.8Q421.42-1.8 422.8-2.63 424.17-3.45 424.8-4.83 425.42-6.2 425.57-7.8L425.57-7.8 426.72-7.8 426.32 0Z" opacity="1" transform="matrix(1,0,0,1,0,0)" fill="#f88020" class="wordmark-text-0" data-fill-palette-color="primary" id="text-0"></path></svg></g></svg></g></svg></g></svg></g><g transform="matrix(1,0,0,1,75.26787618887326,0)"><svg viewBox="0 0 41.46424762225347 44.020491327433625" height="44.020491327433625" width="41.46424762225347"><g><svg xmlns="http://www.w3.org/2000/svg" xmlns:xlink="http://www.w3.org/1999/xlink" version="1.1" x="0" y="0" viewBox="18.45302862855121 16.433999214363617 50.86048518935391 53.99600078563639" enable-background="new 0 0 90 90" xml:space="preserve" height="44.020491327433625" width="41.46424762225347" class="icon-icon-0" data-fill-palette-color="accent" id="icon-0"><path d="M68.617 46.749A10.8 10.8 0 0 0 62.934 40.657 10.8 10.8 0 0 0 58.428 39.678C56.478 39.678 54.616 40.224 52.99 41.164L43.458 29.238C43.656 28.924 43.838 28.598 43.996 28.255 45.904 24.061 44.046 19.095 39.855 17.187A8.3 8.3 0 0 0 36.397 16.434 8.38 8.38 0 0 0 28.784 21.328C26.875 25.521 28.734 30.486 32.927 32.399 34.024 32.899 35.189 33.152 36.385 33.152A8.35 8.35 0 0 0 41.2 31.601L50.456 43.18A10.8 10.8 0 0 0 48.523 46.046 10.8 10.8 0 0 0 47.769 52.718L33.957 57.747A8.27 8.27 0 0 0 30.278 54.467 8.3 8.3 0 0 0 26.818 53.713 8.38 8.38 0 0 0 19.21 58.606 8.3 8.3 0 0 0 18.987 64.998 8.3 8.3 0 0 0 23.35 69.674C24.448 70.174 25.613 70.43 26.814 70.43A8.38 8.38 0 0 0 34.418 65.535 8.3 8.3 0 0 0 35.069 60.792L48.879 55.763A10.8 10.8 0 0 0 53.914 60.466 10.8 10.8 0 0 0 58.425 61.446C62.681 61.446 66.568 58.943 68.328 55.072A10.8 10.8 0 0 0 68.617 46.749M31.466 64.189A5.13 5.13 0 0 1 26.81 67.185 5.1 5.1 0 0 1 24.69 66.723 5.1 5.1 0 0 1 22.019 63.86 5.07 5.07 0 0 1 22.155 59.947 5.13 5.13 0 0 1 26.814 56.949C27.544 56.949 28.257 57.107 28.929 57.414A5.07 5.07 0 0 1 31.6 60.276 5.08 5.08 0 0 1 31.466 64.189" fill="#8a1f45" data-fill-palette-color="accent"></path></svg></g></svg></g><g></g></svg></g></svg></g></svg></g></svg></g><defs></defs></svg><rect width="320" height="360" fill="none" stroke="none" visibility="hidden"></rect></g></svg></g></svg>